<?xml version="1.0" encoding="utf-8"?>
<!-- Generator: Adobe Illustrator 24.1.3, SVG Export Plug-In . SVG Version: 6.00 Build 0)  -->
<svg version="1.1" id="レイヤー_1" xmlns="http://www.w3.org/2000/svg" xmlns:xlink="http://www.w3.org/1999/xlink" x="0px"
	 y="0px" viewBox="0 0 400 225.1" style="enable-background:new 0 0 400 225.1;" xml:space="preserve">
<style type="text/css">
	.st0{fill:none;}
	.st1{fill:#FFFFFF;}
	.st2{font-family:'ArialMT';}
	.st3{font-size:130px;}
</style>
<rect x="2.3" y="12.3" class="st0" width="400" height="119.5"/>
<text transform="matrix(1 0 0 1 29.55 126.6717)" class="st1 st2 st3">SATO</text>
<g>
	<path class="st1" d="M60.1,220.6c-0.7,0.6-1.3,1.6-1.9,2.9c-0.4,0.8-0.7,1.2-1.1,1.2c-0.2,0-0.5-0.1-1-0.2
		c-6.2-1.5-11.7-3.8-16.5-7c-4.7-3.2-8.4-6.9-10.9-11.3c-0.8,2-1.8,3.8-2.8,5.2c-4.2,6-11.5,10.4-22,13.1c-0.5,0.1-0.8,0.1-0.9,0.1
		c-0.4,0-0.7-0.4-1.1-1.1c-0.5-0.8-1.1-1.6-1.9-2.4c11.2-2.4,18.9-6.5,22.9-12.3c0.9-1.3,1.6-2.7,2.2-4.3H10l-9,0.1
		c-0.4,0-0.5-0.2-0.5-0.5v-2.9c0-0.4,0.2-0.5,0.5-0.5l8.1,0.1v-9.4L9,185.6c0-0.4,0.2-0.5,0.5-0.5l9.6,0.1h8.3
		c0-3.2-0.1-5.6-0.4-7.1c1.1,0,2.5,0.2,4.2,0.3c0.6,0.1,1,0.3,1,0.7c0,0.1-0.1,0.5-0.3,1.2c-0.2,0.4-0.3,2.1-0.4,4.9H40l9.5-0.1
		c0.4,0,0.5,0.2,0.5,0.5l-0.1,5.8v9.4l8.5-0.1c0.4,0,0.5,0.2,0.5,0.5v2.9c0,0.4-0.2,0.5-0.5,0.5l-9-0.1H31.9
		C37.4,212.9,46.8,218.3,60.1,220.6z M59.1,174.4c0,0.4-0.2,0.5-0.6,0.5l-8.8-0.1h-9.3l0.1,5.5c0,0.4-0.2,0.5-0.6,0.5h-3
		c-0.4,0-0.5-0.2-0.5-0.5l0.1-5.5H22.3l0.1,5.5c0,0.4-0.2,0.5-0.5,0.5h-3.1c-0.3,0-0.5-0.2-0.5-0.5l0.1-5.5h-9l-8.9,0.1
		c-0.4,0-0.5-0.2-0.5-0.5v-2.9c0-0.4,0.2-0.5,0.5-0.5l8.9,0.1h9.1c0-3.6-0.2-6-0.5-7.1c1.4,0.1,2.8,0.2,4.3,0.3
		c0.5,0.1,0.7,0.3,0.7,0.6c0,0.2-0.1,0.5-0.3,0.9c-0.3,0.6-0.4,2.3-0.4,5.3h14.3c0-3.6-0.2-6-0.5-7.2c1.7,0.1,3.1,0.2,4.2,0.4
		c0.5,0.1,0.8,0.3,0.8,0.6c0,0.2-0.1,0.5-0.3,0.9c-0.3,0.5-0.4,2.1-0.4,5v0.3h9.3l8.8-0.1c0.4,0,0.6,0.2,0.6,0.5V174.4z M27.3,188.8
		H13.1v12h13.1C26.8,197.7,27.2,193.7,27.3,188.8z M45.8,200.8v-12H31.3c-0.2,5.3-0.5,9.3-1.1,12H45.8z"/>
	<path class="st1" d="M129.9,188.3c-0.8,0.8-1.5,1.7-2,2.7c-0.4,0.7-0.7,1.1-0.9,1.1c-0.2,0-0.5-0.1-1-0.4
		c-12.3-5.5-21.8-13-28.5-22.5c-6.3,9.1-15.3,16.7-27.3,22.7c-0.5,0.3-0.8,0.4-1,0.4s-0.5-0.3-0.9-1c-0.6-0.9-1.3-1.7-2.1-2.3
		c6.4-2.7,12.2-6.1,17.3-10.4c4.3-3.6,7.7-7.5,10.4-11.6c0.8-1.5,1.4-2.7,1.8-3.8c1.7,0.2,3.1,0.5,4.2,0.9c0.6,0.2,1,0.5,1,0.8
		s-0.2,0.6-0.5,0.7c-0.1,0-0.3,0.2-0.7,0.5c4.2,5.7,9.1,10.4,14.5,14.2C118.7,183.4,123.9,186.1,129.9,188.3z M124.8,201.9
		c0,0.4-0.2,0.5-0.5,0.5l-9.4-0.1H94.1c-2.3,5.8-4.7,11-7.1,15.7c7.6-0.5,16-1.3,25.1-2.3c-1.9-2.4-4-4.9-6.4-7.5
		c-0.2-0.2-0.2-0.3-0.2-0.4c0-0.2,0.2-0.3,0.6-0.5l2-1.1c0.3-0.1,0.5-0.2,0.6-0.2s0.3,0.1,0.4,0.2c4.1,4.1,8.4,9.5,13.1,16.1
		c0.1,0.2,0.2,0.3,0.2,0.4c0,0.2-0.2,0.4-0.5,0.6l-2.1,1.4c-0.4,0.2-0.6,0.3-0.8,0.3c-0.2,0-0.3-0.1-0.5-0.4
		c-1.8-2.8-3.1-4.7-3.9-5.7c-11.3,1.5-23.8,2.7-37.4,3.7c-1.5,0.2-2.3,0.4-2.6,0.6c-0.3,0.3-0.6,0.4-0.9,0.4s-0.6-0.2-0.7-0.7
		c-0.4-1.2-0.7-2.7-1-4.6c1.1,0.1,2.2,0.1,3.4,0.1c1.2,0,2.5,0,4-0.1c0.6,0,1.6,0,2.9-0.1c2.9-5.4,5.2-10.7,7.1-15.9h-8.1l-9.3,0.1
		c-0.4,0-0.6-0.2-0.6-0.5v-3c0-0.4,0.2-0.5,0.6-0.5l9.3,0.1h33.6l9.4-0.1c0.4,0,0.5,0.2,0.5,0.5
		C124.8,198.9,124.8,201.9,124.8,201.9z M111.9,189.5c0,0.4-0.2,0.5-0.5,0.5l-8-0.1h-11l-7.9,0.1c-0.4,0-0.6-0.2-0.6-0.5v-3
		c0-0.4,0.2-0.5,0.6-0.5l7.9,0.1h11l8-0.1c0.4,0,0.5,0.2,0.5,0.5V189.5z"/>
	<path class="st1" d="M159.5,179.8c0,0.4-0.2,0.6-0.6,0.6l-7.1-0.1h-8.4l-7.1,0.1c-0.4,0-0.5-0.2-0.5-0.6V177c0-0.4,0.2-0.5,0.5-0.5
		l7.1,0.1h8.4l7.1-0.1c0.4,0,0.6,0.2,0.6,0.5V179.8z M157.6,223.4c0,0.4-0.2,0.5-0.6,0.5h-2.8c-0.4,0-0.5-0.2-0.5-0.5v-2.3h-11v3.4
		c0,0.4-0.2,0.6-0.5,0.6h-2.8c-0.4,0-0.6-0.2-0.6-0.6l0.1-10v-4.1l-0.1-5.9c0-0.4,0.2-0.5,0.5-0.5l6,0.1h5.6l6.1-0.1
		c0.4,0,0.5,0.2,0.5,0.5l-0.1,4.8v4.4L157.6,223.4z M157.9,170.4c0,0.4-0.2,0.5-0.6,0.5l-6-0.1h-5.8l-6,0.1c-0.4,0-0.6-0.2-0.6-0.5
		v-2.7c0-0.4,0.2-0.5,0.6-0.5l6,0.1h5.8l6-0.1c0.4,0,0.6,0.2,0.6,0.5V170.4z M156.9,189c0,0.4-0.2,0.5-0.6,0.5l-5.5-0.1h-5.1
		l-5.6,0.1c-0.4,0-0.5-0.2-0.5-0.5v-2.7c0-0.4,0.2-0.5,0.5-0.5l5.6,0.1h5.1l5.5-0.1c0.4,0,0.6,0.2,0.6,0.5V189z M156.9,198
		c0,0.4-0.2,0.6-0.6,0.6l-5.5-0.1h-5.1l-5.6,0.1c-0.4,0-0.5-0.2-0.5-0.6v-2.7c0-0.4,0.2-0.5,0.5-0.5l5.6,0.1h5.1l5.5-0.1
		c0.4,0,0.6,0.2,0.6,0.5V198z M153.7,217.8v-10.3h-11v10.3H153.7z M196.2,188.7c0,0.4-0.2,0.5-0.6,0.5l-9.1-0.1h-7.1v11.2h3.9
		l8.1-0.1c0.4,0,0.5,0.2,0.5,0.5l-0.1,6.4v5.8l0.1,11.3c0,0.4-0.2,0.5-0.5,0.5h-3.1c-0.4,0-0.5-0.2-0.5-0.5v-3h-20.2v3.4
		c0,0.4-0.2,0.6-0.5,0.6H164c-0.4,0-0.5-0.2-0.5-0.6l0.1-11.5V208l-0.1-7.3c0-0.4,0.2-0.5,0.5-0.5l8.1,0.1h3.2v-11.2h-5.7l-9,0.1
		c-0.4,0-0.5-0.2-0.5-0.5v-3c0-0.4,0.2-0.5,0.5-0.5l9,0.1h5.7v-11.5c-3.7,0.8-7.4,1.5-11.3,2c-0.3,0-0.5,0.1-0.7,0.1
		c-0.3,0-0.6-0.3-0.9-1c-0.4-1-0.9-1.8-1.6-2.6c9.5-0.9,17.6-2.7,24.4-5.4c1.7-0.7,3.1-1.5,4-2.3c1.1,1,2.1,1.9,2.8,2.9
		c0.3,0.4,0.5,0.7,0.5,1c0,0.4-0.4,0.5-1.1,0.5c-0.6,0-1.3,0.2-2.1,0.5c-3.4,1.3-6.7,2.3-9.9,3.2v12.5h7.1l9.1-0.1
		c0.4,0,0.6,0.2,0.6,0.5L196.2,188.7L196.2,188.7z M187.9,217.6V204h-20.2v13.6H187.9z"/>
	<path class="st1" d="M229.5,200.7c-5.9,9.1-14,16.3-24.2,21.4l-3-3.9c9.5-5,16.9-11.3,22.2-19.1c4.6-6.7,7.9-14.8,9.9-24.5h-28.5
		v-4.5h35.2c-2,10-5,18.7-9,26c6.1,7.4,11.4,15,15.8,22.8l-5,3.2C239.4,214.8,234.9,207.7,229.5,200.7z"/>
	<path class="st1" d="M271.5,177.2c-3.2,7.6-7.3,14.1-12.5,19.5l-3.9-3c7.2-7.7,12.1-17.1,14.7-28.2l5.4,0.8c-0.5,1.7-1.1,3.9-2,6.4
		h23.5c-2.1,15.6-6.4,27.5-13,35.7c-5.1,6.3-12.2,11.4-21.4,15l-3-3.6c9.6-3.8,16.9-9.2,21.7-16.1c4.7-6.6,7.9-15.5,9.5-26.5
		L271.5,177.2L271.5,177.2z"/>
	<path class="st1" d="M305.3,192.3h36.9v5h-36.9V192.3z"/>
	<path class="st1" d="M364.4,168.5c0,12.9-0.2,22.1-0.7,27.8c-0.4,4.8-1,8.6-1.9,11.4c-1.8,5.6-5.1,10.5-9.9,14.6l-3.9-3.1
		c4.3-3.1,7.4-7.6,9.2-13.5c0.8-2.8,1.4-7.5,1.7-14c0.2-5,0.3-12.8,0.3-23.3h5.2V168.5z M378.9,214.5c7.4-5,13.2-12.8,17.6-23.3
		l3.5,4.5c-5.7,11.8-13.5,20.7-23.4,26.6l-2.9-1.5V168h5.2L378.9,214.5L378.9,214.5z"/>
</g>
</svg>
